<svg width="22" height="22" viewBox="0 0 22 22" fill="none" xmlns="http://www.w3.org/2000/svg">
<path d="M9.89999 16.5H12.1V12.1H16.5V9.89999H12.1V5.5H9.89999V9.89999H5.5V12.1H9.89999V16.5ZM11 22C9.47832 22 8.04833 21.7112 6.70999 21.1337C5.37166 20.5562 4.2075 19.7725 3.2175 18.7825C2.2275 17.7925 1.44375 16.6283 0.866249 15.29C0.28875 13.9517 0 12.5217 0 11C0 9.47832 0.28875 8.04833 0.866249 6.70999C1.44375 5.37166 2.2275 4.2075 3.2175 3.2175C4.2075 2.2275 5.37166 1.44375 6.70999 0.866249C8.04833 0.28875 9.47832 0 11 0C12.5217 0 13.9517 0.28875 15.29 0.866249C16.6283 1.44375 17.7925 2.2275 18.7825 3.2175C19.7725 4.2075 20.5562 5.37166 21.1337 6.70999C21.7112 8.04833 22 9.47832 22 11C22 12.5217 21.7112 13.9517 21.1337 15.29C20.5562 16.6283 19.7725 17.7925 18.7825 18.7825C17.7925 19.7725 16.6283 20.5562 15.29 21.1337C13.9517 21.7112 12.5217 22 11 22Z" fill="#15BAAA"/>
</svg>
