<svg width="22" height="20" viewBox="0 0 22 20" fill="none" xmlns="http://www.w3.org/2000/svg">
<path d="M2.30233 20C1.03079 20 0 18.9692 0 17.6977V15.6246C0 15.2007 0.343595 14.8571 0.767442 14.8571C1.19129 14.8571 1.53488 15.2007 1.53488 15.6246V16.7508C1.53488 17.5985 2.22207 18.2857 3.06977 18.2857H3.74751C4.2209 18.2857 4.60465 18.6695 4.60465 19.1429C4.60465 19.6162 4.2209 20 3.74751 20H2.30233ZM18.2525 20C17.7791 20 17.3953 19.6162 17.3953 19.1429C17.3953 18.6695 17.7791 18.2857 18.2525 18.2857H18.9302C19.7779 18.2857 20.4651 17.5985 20.4651 16.7508V15.6246C20.4651 15.2007 20.8087 14.8571 21.2326 14.8571C21.6564 14.8571 22 15.2007 22 15.6246V17.6977C22 18.9692 20.9692 20 19.6977 20H18.2525ZM3.83721 16.8571C3.27208 16.8571 2.81395 16.399 2.81395 15.8339V4.16611C2.81395 3.60098 3.27208 3.14286 3.83721 3.14286C4.40234 3.14286 4.86047 3.60098 4.86047 4.16611V15.8339C4.86047 16.399 4.40234 16.8571 3.83721 16.8571ZM6.39535 16.8571C6.11278 16.8571 5.88372 16.6281 5.88372 16.3455V3.65448C5.88372 3.37192 6.11278 3.14286 6.39535 3.14286C6.67791 3.14286 6.90698 3.37192 6.90698 3.65449V16.3455C6.90698 16.6281 6.67791 16.8571 6.39535 16.8571ZM9.97674 16.8571C9.41162 16.8571 8.95349 16.399 8.95349 15.8339V4.16611C8.95349 3.60098 9.41162 3.14286 9.97674 3.14286C10.5419 3.14286 11 3.60098 11 4.16611V15.8339C11 16.399 10.5419 16.8571 9.97674 16.8571ZM13.5581 16.8571C12.7104 16.8571 12.0233 16.17 12.0233 15.3223V4.67774C12.0233 3.83005 12.7104 3.14286 13.5581 3.14286C14.4058 3.14286 15.093 3.83005 15.093 4.67774V15.3223C15.093 16.17 14.4058 16.8571 13.5581 16.8571ZM16.6279 16.8571C16.3453 16.8571 16.1163 16.6281 16.1163 16.3455V3.65448C16.1163 3.37192 16.3453 3.14286 16.6279 3.14286C16.9105 3.14286 17.1395 3.37192 17.1395 3.65449V16.3455C17.1395 16.6281 16.9105 16.8571 16.6279 16.8571ZM18.6744 16.8571C18.3919 16.8571 18.1628 16.6281 18.1628 16.3455V3.65448C18.1628 3.37192 18.3919 3.14286 18.6744 3.14286C18.957 3.14286 19.186 3.37192 19.186 3.65449V16.3455C19.186 16.6281 18.957 16.8571 18.6744 16.8571ZM0.767442 5.14286C0.343595 5.14286 0 4.79926 0 4.37542V2.30233C0 1.03079 1.03079 0 2.30233 0H3.74751C4.22089 0 4.60465 0.383756 4.60465 0.857143C4.60465 1.33053 4.2209 1.71429 3.74751 1.71429H3.06977C2.22207 1.71429 1.53488 2.40148 1.53488 3.24917V4.37542C1.53488 4.79926 1.19129 5.14286 0.767442 5.14286ZM21.2326 5.14286C20.8087 5.14286 20.4651 4.79926 20.4651 4.37542V3.24917C20.4651 2.40148 19.7779 1.71429 18.9302 1.71429H18.2525C17.7791 1.71429 17.3953 1.33053 17.3953 0.857143C17.3953 0.383756 17.7791 0 18.2525 0H19.6977C20.9692 0 22 1.03079 22 2.30233V4.37541C22 4.79926 21.6564 5.14286 21.2326 5.14286Z" fill="black" fill-opacity="0.54"/>
</svg>
