<svg width="23" height="21" viewBox="0 0 23 21" fill="none" xmlns="http://www.w3.org/2000/svg">
<path d="M1.78775 5.24855H12.2139H11.4485H11.8427H1.78775ZM2.25317 3.46109H17.9967L16.697 1.91379C16.6589 1.87565 16.615 1.84506 16.5653 1.82202C16.5157 1.79918 16.4641 1.78775 16.4107 1.78775H3.8392C3.78577 1.78775 3.73412 1.79918 3.68426 1.82202C3.6346 1.84506 3.5907 1.87565 3.55257 1.91379L2.25317 3.46109ZM7.74693 11.1505L10.1306 9.95868L12.5143 11.1505V5.24855H7.74693V11.1505ZM12.8602 20.2612H2.15454C1.562 20.2612 1.05478 20.0503 0.632865 19.6283C0.210955 19.2064 0 18.6992 0 18.1067V4.17828C0 3.927 0.0409196 3.68466 0.122759 3.45126C0.2044 3.21786 0.326961 3.00333 0.490441 2.80767L2.16378 0.78393C2.35924 0.531658 2.60366 0.337985 2.89706 0.20291C3.19045 0.0676366 3.50122 0 3.82937 0H16.4089C16.7371 0 17.0492 0.0676366 17.3454 0.20291C17.6418 0.337985 17.8887 0.531658 18.0861 0.78393L19.7708 2.83061C19.9342 3.02945 20.0568 3.24626 20.1385 3.48106C20.2203 3.71585 20.2612 3.95978 20.2612 4.21284V9.37647C19.9907 9.28331 19.7103 9.2123 19.4201 9.16343C19.1297 9.11456 18.8371 9.09013 18.5423 9.09013H18.4735V5.24855H14.302V10.5981C13.8436 10.8732 13.4306 11.2216 13.0631 11.6433C12.6956 12.0651 12.4126 12.5211 12.2139 13.0116L10.1306 11.9756L5.95918 14.0613V5.24855H1.78775V18.1067C1.78775 18.2137 1.82212 18.3016 1.89085 18.3704C1.95958 18.4391 2.04747 18.4735 2.15454 18.4735H11.8427C11.9577 18.8131 12.1014 19.1307 12.2738 19.426C12.4462 19.7214 12.6417 19.9998 12.8602 20.2612ZM17.6368 20.6164V17.0409H14.0613V15.2531H17.6368V11.6776H19.4245V15.2531H23.0001V17.0409H19.4245V20.6164H17.6368Z" fill="black" fill-opacity="0.32"/>
</svg>
