<svg width="20" height="22" viewBox="0 0 20 22" fill="none" xmlns="http://www.w3.org/2000/svg">
<path d="M7.00861 12.4681H8.67528V7.56417H7.00861V12.4681ZM2.68167 11.015C1.87259 10.6104 1.22333 10.0284 0.733889 9.26917C0.24463 8.50991 0 7.67944 0 6.77778C0 5.51 0.439445 4.4338 1.31833 3.54917C2.19722 2.66454 3.27065 2.22222 4.53861 2.22222C4.75898 2.22222 4.98398 2.24074 5.21361 2.27778C5.44324 2.31481 5.66833 2.36111 5.88889 2.41667L5.985 2.43806L6.03861 2.3525C6.47306 1.63602 7.03389 1.06481 7.72111 0.638889C8.40852 0.212963 9.16815 0 10 0C10.8319 0 11.5915 0.212963 12.2789 0.638889C12.9661 1.06481 13.5306 1.63602 13.9722 2.3525L14.0256 2.43806L14.1111 2.41667C14.3281 2.36111 14.5451 2.31481 14.7619 2.27778C14.979 2.24074 15.2051 2.22222 15.4403 2.22222C16.7151 2.22222 17.7937 2.66444 18.6761 3.54889C19.5587 4.43315 20 5.51306 20 6.78861C20 7.69028 19.7571 8.51889 19.2714 9.27444C18.7857 10.0302 18.1346 10.6095 17.3183 11.0125V16.7947H2.68167V11.015ZM11.3356 12.4681H13.0022V7.56417H11.3356V12.4681ZM4.34833 15.1283H15.6517V9.97445L16.7136 9.44861C17.2166 9.20083 17.6141 8.84333 17.9061 8.37611C18.198 7.90889 18.3439 7.39157 18.3439 6.82417C18.3439 6.00232 18.0587 5.30759 17.4883 4.74C16.9178 4.17259 16.228 3.88889 15.4189 3.88889C15.2222 3.88889 15.0388 3.90565 14.8686 3.93917C14.6984 3.97269 14.5243 4.01722 14.3461 4.07278L13.2542 4.38028L12.5533 3.20306C12.2728 2.73435 11.9099 2.36111 11.4647 2.08333C11.0195 1.80556 10.5331 1.66667 10.0053 1.66667C9.4775 1.66667 8.99102 1.80556 8.54583 2.08333C8.10065 2.36111 7.73778 2.73435 7.45722 3.20306L6.75639 4.38028L5.63667 4.07278C5.4587 4.02852 5.28176 3.98685 5.10583 3.94778C4.92991 3.90852 4.74935 3.88889 4.56417 3.88889C3.75509 3.88889 3.06991 4.17185 2.50861 4.73778C1.94731 5.30352 1.66667 5.9962 1.66667 6.81583C1.66667 7.38157 1.81222 7.89741 2.10333 8.36333C2.39444 8.82926 2.79232 9.19102 3.29694 9.44861L4.34833 9.97445V15.1283ZM2.68167 16.7947H4.34833V19.4444H15.6517V16.7947H17.3183V21.1111H2.68167V16.7947Z" fill="black" fill-opacity="0.87"/>
</svg>
