<svg width="26" height="26" viewBox="0 0 26 26" fill="none" xmlns="http://www.w3.org/2000/svg">
<path d="M8.07369 19.3683L13 14.442L17.9263 19.3683L19.3683 17.9263L14.442 13L19.3683 8.07369L17.9263 6.63171L13 11.558L8.07369 6.63171L6.63171 8.07369L11.558 13L6.63171 17.9263L8.07369 19.3683ZM13.0024 26C11.2043 26 9.51418 25.6588 7.93206 24.9764C6.34993 24.294 4.97376 23.368 3.80353 22.1982C2.6333 21.0284 1.70676 19.6528 1.02392 18.0714C0.341307 16.4899 0 14.8003 0 13.0024C0 11.2043 0.341193 9.51418 1.02358 7.93206C1.70597 6.34993 2.63205 4.97376 3.80182 3.80353C4.97159 2.6333 6.3472 1.70676 7.92864 1.02392C9.51007 0.341307 11.1997 0 12.9976 0C14.7957 0 16.4858 0.341193 18.068 1.02358C19.6501 1.70597 21.0263 2.63205 22.1965 3.80182C23.3667 4.97159 24.2932 6.3472 24.9761 7.92864C25.6587 9.51007 26 11.1997 26 12.9976C26 14.7957 25.6588 16.4858 24.9764 18.068C24.294 19.6501 23.368 21.0263 22.1982 22.1965C21.0284 23.3667 19.6528 24.2932 18.0714 24.9761C16.4899 25.6587 14.8003 26 13.0024 26Z" fill="black" fill-opacity="0.87"/>
</svg>
