<svg width="23" height="18" viewBox="0 0 23 18" fill="none" xmlns="http://www.w3.org/2000/svg">
<path d="M22.8 2.1693V15.8307C22.8 16.4369 22.59 16.95 22.17 17.37C21.75 17.79 21.2369 18 20.6307 18H2.1693C1.5631 18 1.05 17.79 0.63 17.37C0.21 16.95 0 16.4369 0 15.8307V2.1693C0 1.5631 0.21 1.05 0.63 0.63C1.05 0.21 1.5631 0 2.1693 0H20.6307C21.2369 0 21.75 0.21 22.17 0.63C22.59 1.05 22.8 1.5631 22.8 2.1693ZM1.8 4.6848H21V2.1693C21 2.0769 20.9615 1.9923 20.8845 1.9155C20.8077 1.8385 20.7231 1.8 20.6307 1.8H2.1693C2.0769 1.8 1.9923 1.8385 1.9155 1.9155C1.8385 1.9923 1.8 2.0769 1.8 2.1693V4.6848ZM1.8 8.5152V15.8307C1.8 15.9231 1.8385 16.0077 1.9155 16.0845C1.9923 16.1615 2.0769 16.2 2.1693 16.2H20.6307C20.7231 16.2 20.8077 16.1615 20.8845 16.0845C20.9615 16.0077 21 15.9231 21 15.8307V8.5152H1.8Z" fill="#1C1B1F"/>
</svg>
