<svg width="25" height="23" viewBox="0 0 25 23" fill="none" xmlns="http://www.w3.org/2000/svg">
<path d="M12.2455 20.7963C12.3629 20.7963 12.4822 20.7689 12.6036 20.7139C12.7247 20.659 12.8204 20.5965 12.8906 20.5263L22.4056 11.0113C22.674 10.7428 22.8762 10.456 23.012 10.1509C23.1476 9.84591 23.2154 9.52569 23.2154 9.1902C23.2154 8.84242 23.1476 8.50763 23.012 8.18582C22.8762 7.86382 22.674 7.57473 22.4056 7.31855L17.6469 2.55987C17.3907 2.2914 17.1131 2.09501 16.8141 1.97069C16.5153 1.84657 16.192 1.78451 15.8442 1.78451C15.5088 1.78451 15.1866 1.84657 14.8776 1.97069C14.5687 2.09501 14.2839 2.2914 14.0232 2.55987L13.3412 3.24185L15.5421 5.46088C15.8089 5.71567 16.0061 6.00625 16.1336 6.33261C16.2609 6.65898 16.3246 6.99754 16.3246 7.34829C16.3246 8.07439 16.0821 8.67993 15.5971 9.16492C15.1121 9.64991 14.5066 9.8924 13.7805 9.8924C13.4297 9.8924 13.09 9.83441 12.7612 9.71842C12.4327 9.60262 12.141 9.41733 11.8862 9.16254L9.63268 6.92745L4.46237 12.0978C4.37235 12.1878 4.30484 12.2885 4.25983 12.3999C4.21482 12.5112 4.19232 12.6256 4.19232 12.7432C4.19232 12.9626 4.26707 13.1502 4.41657 13.3059C4.56607 13.4615 4.75057 13.5393 4.97006 13.5393C5.08764 13.5393 5.207 13.5119 5.32815 13.457C5.4495 13.402 5.54527 13.3395 5.61546 13.2693L9.52293 9.36181L10.7765 10.6154L6.88722 14.5229C6.7974 14.6129 6.72998 14.7136 6.68497 14.8251C6.63996 14.9363 6.61746 15.0507 6.61746 15.1683C6.61746 15.3803 6.69409 15.5629 6.84736 15.7161C7.00063 15.8694 7.18324 15.946 7.3952 15.946C7.51278 15.946 7.63215 15.9186 7.75329 15.8637C7.87464 15.8087 7.97031 15.7462 8.0403 15.676L12.0852 11.6495L13.3391 12.9032L9.31236 16.948C9.23007 17.0182 9.16454 17.1139 9.11576 17.235C9.06699 17.3564 9.0426 17.4758 9.0426 17.5931C9.0426 17.8053 9.11923 17.988 9.2725 18.1413C9.42577 18.2945 9.60839 18.3712 9.82035 18.3712C9.93773 18.3712 10.0521 18.3487 10.1636 18.3037C10.2748 18.2587 10.3754 18.1911 10.4654 18.1011L14.5103 14.0747L15.7642 15.3283L11.7194 19.3732C11.6293 19.4632 11.5618 19.5677 11.5168 19.6867C11.4718 19.8056 11.4493 19.92 11.4493 20.0299C11.4493 20.2494 11.5309 20.432 11.6941 20.5777C11.8573 20.7235 12.0411 20.7963 12.2455 20.7963ZM12.227 22.5805C11.5545 22.5805 10.9681 22.3473 10.4678 21.8807C9.96757 21.414 9.70604 20.8328 9.68324 20.1372C9.00909 20.0914 8.44588 19.852 7.99361 19.419C7.54133 18.9857 7.29616 18.4168 7.25809 17.7121C6.55341 17.6665 5.98376 17.4202 5.54913 16.9733C5.11431 16.5264 4.88163 15.9643 4.85109 15.287C4.14344 15.2414 3.55931 14.9848 3.09871 14.5172C2.63811 14.0497 2.40781 13.4583 2.40781 12.7432C2.40781 12.3924 2.47453 12.0488 2.60797 11.7123C2.74141 11.376 2.93553 11.0806 3.19032 10.826L9.63268 4.40178L13.1172 7.88603C13.1872 7.96831 13.279 8.03394 13.3926 8.08292C13.5064 8.13169 13.6297 8.15608 13.7623 8.15608C13.9788 8.15608 14.1656 8.0844 14.3227 7.94105C14.4799 7.79769 14.5585 7.61002 14.5585 7.37804C14.5585 7.24539 14.5341 7.12226 14.4853 7.00864C14.4364 6.89503 14.3707 6.80313 14.2884 6.73294L10.1154 2.55987C9.85921 2.2914 9.57974 2.09501 9.27696 1.97069C8.97419 1.84657 8.64892 1.78451 8.30114 1.78451C7.96565 1.78451 7.64731 1.84657 7.34613 1.97069C7.04475 2.09501 6.75992 2.2914 6.49165 2.55987L2.58388 6.48578C2.36736 6.7023 2.1901 6.95818 2.0521 7.25342C1.9141 7.54846 1.8329 7.84934 1.80851 8.15608C1.78393 8.40928 1.79533 8.65981 1.84272 8.90765C1.88991 9.1555 1.97299 9.38848 2.09195 9.60658L0.778854 10.9197C0.510385 10.5322 0.30834 10.0983 0.172718 9.61789C0.0368969 9.13746 -0.0188194 8.65019 0.00556884 8.15608C0.0299571 7.60843 0.153484 7.07953 0.376151 6.56936C0.598818 6.05919 0.91071 5.60354 1.31183 5.20243L5.208 1.30626C5.65353 0.873019 6.13822 0.547049 6.66207 0.328348C7.18592 0.109449 7.73614 0 8.31274 0C8.88913 0 9.43737 0.109449 9.95746 0.328348C10.4777 0.547049 10.9544 0.873019 11.3874 1.30626L12.0694 1.98794L12.7511 1.30626C13.1964 0.873019 13.6791 0.547049 14.1992 0.328348C14.7193 0.109449 15.2676 0 15.8442 0C16.4208 0 16.9711 0.109449 17.4949 0.328348C18.0188 0.547049 18.4973 0.873019 18.9305 1.30626L23.6595 6.0352C24.0925 6.46843 24.4242 6.96145 24.6546 7.51425C24.8848 8.06705 24.9999 8.63175 24.9999 9.20834C24.9999 9.78494 24.8848 10.3333 24.6546 10.8534C24.4242 11.3734 24.0925 11.85 23.6595 12.283L14.1442 21.7799C13.8819 22.0422 13.5864 22.2413 13.2579 22.3771C12.9292 22.5127 12.5855 22.5805 12.227 22.5805Z" fill="#15BAAA"/>
</svg>
