<svg width="24" height="18" viewBox="0 0 24 18" fill="none" xmlns="http://www.w3.org/2000/svg">
<path d="M14.0682 9.56809C13.2425 9.56809 12.5436 9.28209 11.9716 8.71008C11.3996 8.13808 11.1136 7.43922 11.1136 6.61352C11.1136 5.78781 11.3996 5.08896 11.9716 4.51695C12.5436 3.94495 13.2425 3.65894 14.0682 3.65894C14.8939 3.65894 15.5928 3.94495 16.1648 4.51695C16.7368 5.08896 17.0228 5.78781 17.0228 6.61352C17.0228 7.43922 16.7368 8.13808 16.1648 8.71008C15.5928 9.28209 14.8939 9.56809 14.0682 9.56809ZM6.27256 13.2273C5.68519 13.2273 5.18232 13.0181 4.76395 12.5998C4.34559 12.1814 4.1364 11.6784 4.1364 11.0909V2.13616C4.1364 1.54879 4.34559 1.04592 4.76395 0.627551C5.18232 0.209184 5.68519 0 6.27256 0H21.8636C22.4511 0 22.9541 0.209184 23.3724 0.627551C23.7908 1.04592 24 1.54879 24 2.13616V11.0909C24 11.6784 23.7908 12.1814 23.3724 12.5998C22.9541 13.0181 22.4511 13.2273 21.8636 13.2273H6.27256ZM8.0453 11.4546H20.0911C20.0911 10.8652 20.3003 10.3618 20.7187 9.94421C21.137 9.52682 21.6399 9.31813 22.2273 9.31813V3.9089C21.6379 3.9089 21.1346 3.69972 20.7172 3.28135C20.2998 2.86298 20.0911 2.36011 20.0911 1.77274H8.0453C8.0453 2.36208 7.83612 2.86544 7.41775 3.28283C6.99938 3.70021 6.49652 3.9089 5.90915 3.9089V9.31813C6.49849 9.31813 7.00185 9.52732 7.41923 9.94568C7.83661 10.3641 8.0453 10.867 8.0453 11.4546ZM20.4773 17.3637H2.13645C1.54889 17.3637 1.04592 17.1545 0.627551 16.7362C0.209184 16.3178 0 15.8148 0 15.2273V3.52274H1.77274V15.2273C1.77274 15.3181 1.81056 15.4014 1.8862 15.4772C1.96203 15.5531 2.04545 15.591 2.13645 15.591H20.4773V17.3637ZM6.27256 11.4546H5.90915V1.77274H6.27256C6.17407 1.77274 6.08888 1.80869 6.01699 1.88059C5.94509 1.95248 5.90915 2.03767 5.90915 2.13616V11.0909C5.90915 11.1894 5.94509 11.2746 6.01699 11.3464C6.08888 11.4185 6.17407 11.4546 6.27256 11.4546Z" fill="#1C1B1F"/>
</svg>
