<svg width="16" height="25" viewBox="0 0 16 25" fill="none" xmlns="http://www.w3.org/2000/svg">
<path d="M6.60714 15.6592L3.68601 12.7381L4.94048 11.4836L6.60714 13.1503L10.8333 8.92411L12.0878 10.1786L6.60714 15.6592ZM2.15208 25C1.55069 25 1.04167 24.7917 0.625 24.375C0.208333 23.9583 0 23.4493 0 22.8479V2.15208C0 1.55069 0.208333 1.04167 0.625 0.625C1.04167 0.208333 1.55069 0 2.15208 0H13.3241C13.9255 0 14.4345 0.208333 14.8512 0.625C15.2679 1.04167 15.4762 1.55069 15.4762 2.15208V22.8479C15.4762 23.4493 15.2679 23.9583 14.8512 24.375C14.4345 24.7917 13.9255 25 13.3241 25H2.15208ZM1.78571 21.7262V22.8479C1.78571 22.9396 1.82391 23.0235 1.9003 23.0997C1.97649 23.1761 2.06042 23.2143 2.15208 23.2143H13.3241C13.4158 23.2143 13.4997 23.1761 13.5759 23.0997C13.6523 23.0235 13.6905 22.9396 13.6905 22.8479V21.7262H1.78571ZM1.78571 19.9405H13.6905V5.05952H1.78571V19.9405ZM1.78571 3.27381H13.6905V2.15208C13.6905 2.06042 13.6523 1.97649 13.5759 1.9003C13.4997 1.82391 13.4158 1.78571 13.3241 1.78571H2.15208C2.06042 1.78571 1.97649 1.82391 1.9003 1.9003C1.82391 1.97649 1.78571 2.06042 1.78571 2.15208V3.27381Z" fill="#1C1B1F"/>
</svg>
