<svg width="22" height="23" viewBox="0 0 22 23" fill="none" xmlns="http://www.w3.org/2000/svg">
<path d="M8.29831 22.2436L7.85256 18.6773C7.53901 18.5723 7.21745 18.4253 6.88789 18.2362C6.55853 18.0469 6.264 17.8443 6.0043 17.6283L2.70142 19.0241L0 14.3412L2.85683 12.1822C2.82991 12.0081 2.81079 11.8333 2.79947 11.6577C2.78815 11.4821 2.78249 11.3071 2.78249 11.1329C2.78249 10.9665 2.78815 10.7973 2.79947 10.6254C2.81079 10.4535 2.82991 10.2655 2.85683 10.0614L0 7.90232L2.70142 3.242L5.99288 4.62666C6.27522 4.40305 6.57658 4.19857 6.89697 4.01321C7.21735 3.82784 7.53218 3.67887 7.84144 3.56629L8.29831 0H13.7017L14.1475 3.57741C14.4987 3.70502 14.8165 3.85399 15.1007 4.02433C15.3852 4.19467 15.6723 4.39544 15.9621 4.62666L19.2986 3.242L22.0001 7.90232L19.0981 10.0951C19.1401 10.2841 19.163 10.4609 19.1669 10.6254C19.1706 10.7897 19.1725 10.9551 19.1725 11.1218C19.1725 11.2808 19.1687 11.4426 19.1611 11.607C19.1537 11.7713 19.1267 11.9593 19.0803 12.171L21.9597 14.3412L19.2579 19.0241L15.9621 17.6169C15.6723 17.8481 15.3766 18.0526 15.075 18.2304C14.7733 18.4083 14.4642 18.5536 14.1475 18.6662L13.7017 22.2436H8.29831ZM9.82931 20.4875H12.1303L12.5512 17.3514C13.1487 17.1953 13.6946 16.9736 14.1891 16.6862C14.6837 16.3986 15.1606 16.0289 15.62 15.5772L18.5286 16.7997L19.6815 14.8095L17.1419 12.896C17.2394 12.5928 17.3058 12.2955 17.3409 12.0042C17.3762 11.7131 17.3939 11.4189 17.3939 11.1218C17.3939 10.817 17.3762 10.5229 17.3409 10.2394C17.3058 9.95565 17.2394 9.6659 17.1419 9.3701L19.7037 7.43403L18.5511 5.44382L15.6085 6.68419C15.2167 6.26546 14.7474 5.89552 14.2005 5.57435C13.6533 5.25319 13.0999 5.02578 12.5401 4.89212L12.1707 1.75607H9.84746L9.45995 4.881C8.86269 5.02207 8.31119 5.23816 7.80544 5.52928C7.2995 5.82059 6.81687 6.19581 6.35756 6.65492L3.44892 5.44382L2.29635 7.43403L4.82451 9.31829C4.72695 9.59614 4.65866 9.88511 4.61964 10.1852C4.58061 10.4853 4.5611 10.8012 4.5611 11.1329C4.5611 11.4377 4.58061 11.7364 4.61964 12.0291C4.65866 12.3218 4.72324 12.6107 4.81339 12.896L2.29635 14.8095L3.44892 16.7997L6.34644 15.5705C6.79072 16.0267 7.26574 16.4004 7.77149 16.6917C8.27743 16.9829 8.83655 17.2065 9.44883 17.3626L9.82931 20.4875ZM11.0135 14.6339C11.9875 14.6339 12.8164 14.2921 13.5001 13.6084C14.1838 12.9247 14.5256 12.0958 14.5256 11.1218C14.5256 10.1477 14.1838 9.31888 13.5001 8.63518C12.8164 7.95149 11.9875 7.60964 11.0135 7.60964C10.0274 7.60964 9.19547 7.95149 8.51782 8.63518C7.84017 9.31888 7.50135 10.1477 7.50135 11.1218C7.50135 12.0958 7.84017 12.9247 8.51782 13.6084C9.19547 14.2921 10.0274 14.6339 11.0135 14.6339Z" fill="black" fill-opacity="0.32"/>
</svg>
