<svg width="23" height="21" viewBox="0 0 23 21" fill="none" xmlns="http://www.w3.org/2000/svg">
<path d="M4.32391 20.608C3.13487 20.608 2.11695 20.1846 1.27017 19.3378C0.423391 18.491 0 17.4731 0 16.2841C0 15.0951 0.423391 14.0771 1.27017 13.2304C2.11695 12.3836 3.13487 11.9602 4.32391 11.9602C5.51295 11.9602 6.53086 12.3836 7.37764 13.2304C8.22442 14.0771 8.64781 15.0951 8.64781 16.2841C8.64781 17.4731 8.22442 18.491 7.37764 19.3378C6.53086 20.1846 5.51295 20.608 4.32391 20.608ZM18.6761 20.608C17.4871 20.608 16.4692 20.1846 15.6224 19.3378C14.7756 18.491 14.3522 17.4731 14.3522 16.2841C14.3522 15.0951 14.7756 14.0771 15.6224 13.2304C16.4692 12.3836 17.4871 11.9602 18.6761 11.9602C19.8652 11.9602 20.8831 12.3836 21.7299 13.2304C22.5767 14.0771 23 15.0951 23 16.2841C23 17.4731 22.5767 18.491 21.7299 19.3378C20.8831 20.1846 19.8652 20.608 18.6761 20.608ZM4.32421 18.8143C5.02009 18.8143 5.61571 18.5665 6.11106 18.0709C6.60641 17.5754 6.85408 16.9797 6.85408 16.2838C6.85408 15.5879 6.60631 14.9923 6.11076 14.4969C5.61521 14.0016 5.01949 13.7539 4.32361 13.7539C3.62772 13.7539 3.03211 14.0017 2.53676 14.4972C2.0414 14.9928 1.79373 15.5885 1.79373 16.2844C1.79373 16.9803 2.0415 17.5759 2.53705 18.0712C3.03261 18.5666 3.62832 18.8143 4.32421 18.8143ZM18.6764 18.8143C19.3723 18.8143 19.9679 18.5665 20.4633 18.0709C20.9586 17.5754 21.2063 16.9797 21.2063 16.2838C21.2063 15.5879 20.9585 14.9923 20.463 14.4969C19.9674 14.0016 19.3717 13.7539 18.6758 13.7539C17.98 13.7539 17.3843 14.0017 16.889 14.4972C16.3936 14.9928 16.146 15.5885 16.146 16.2844C16.146 16.9803 16.3937 17.5759 16.8893 18.0712C17.3848 18.5666 17.9805 18.8143 18.6764 18.8143ZM11.5 8.64781C10.311 8.64781 9.29307 8.22442 8.44628 7.37764C7.5995 6.53086 7.17611 5.51295 7.17611 4.32391C7.17611 3.13486 7.5995 2.11695 8.44628 1.27017C9.29307 0.42339 10.311 0 11.5 0C12.6891 0 13.707 0.42339 14.5538 1.27017C15.4005 2.11695 15.8239 3.13486 15.8239 4.32391C15.8239 5.51295 15.4005 6.53086 14.5538 7.37764C13.707 8.22442 12.6891 8.64781 11.5 8.64781ZM11.5003 6.85408C12.1962 6.85408 12.7918 6.60631 13.2872 6.11076C13.7825 5.61521 14.0302 5.01949 14.0302 4.32361C14.0302 3.62772 13.7824 3.03211 13.2869 2.53675C12.7913 2.0414 12.1956 1.79373 11.4997 1.79373C10.8038 1.79373 10.2082 2.0415 9.71287 2.53705C9.21752 3.0326 8.96984 3.62832 8.96984 4.32421C8.96984 5.02009 9.21762 5.61571 9.71317 6.11106C10.2087 6.60641 10.8044 6.85408 11.5003 6.85408Z" fill="black" fill-opacity="0.32"/>
</svg>
